<svg xmlns="http://www.w3.org/2000/svg" viewBox="0 0 107.45 46.39"><defs><style>.cls-1{fill:#ff3d64;}.cls-2{fill:#00e0b2;}.cls-3{fill:#f8cf00;}.cls-4{fill:#8805dd;}</style></defs><title>Asset 1</title><g id="Layer_2" data-name="Layer 2"><g id="Layer_1-2" data-name="Layer 1"><g id="_Group_" data-name="&lt;Group&gt;"><g id="_Group_2" data-name="&lt;Group&gt;"><path class="cls-1" d="M0,42.68a.24.24,0,0,1,.19-.31l2.61-.5a.25.25,0,0,1,.28.19,2.36,2.36,0,0,0,.74,1.08,2.06,2.06,0,0,0,1.38.44A1.87,1.87,0,0,0,6.67,43a2.15,2.15,0,0,0,.53-1.5,2.25,2.25,0,0,0-.61-1.69,2.26,2.26,0,0,0-1.65-.59H4.26A.21.21,0,0,1,4,39v-2.3a.21.21,0,0,1,.24-.24H4.9a2,2,0,0,0,1.45-.55,2,2,0,0,0,.55-1.47A1.94,1.94,0,0,0,6.41,33a1.74,1.74,0,0,0-1.34-.52,1.7,1.7,0,0,0-1.2.4A2.26,2.26,0,0,0,3.24,34a.22.22,0,0,1-.29.17l-2.59-.5c-.16,0-.22-.12-.19-.26a4.33,4.33,0,0,1,.55-1.48,4.11,4.11,0,0,1,1.06-1.18A4.9,4.9,0,0,1,3.3,30a6.42,6.42,0,0,1,1.94-.27A6.24,6.24,0,0,1,7.35,30,4.53,4.53,0,0,1,8.92,31a3.91,3.91,0,0,1,1,1.41,4.73,4.73,0,0,1,.33,1.79,3.83,3.83,0,0,1-1.8,3.32v0a4,4,0,0,1,.74.52,3.77,3.77,0,0,1,.69.82,4.47,4.47,0,0,1,.5,1.13,5.1,5.1,0,0,1,.19,1.45,5,5,0,0,1-.39,2A4.4,4.4,0,0,1,9,45a5.14,5.14,0,0,1-1.67,1,6,6,0,0,1-2.1.36,6,6,0,0,1-3.49-1A4.09,4.09,0,0,1,0,42.68Z"/><path class="cls-1" d="M22.26,46.13a.45.45,0,0,1-.4-.24L19,41h-.07L16,45.89a.45.45,0,0,1-.4.24H12.33a.17.17,0,0,1-.17-.08.19.19,0,0,1,0-.2L17,37.79l-4.49-7.53a.26.26,0,0,1,0-.2.15.15,0,0,1,.15-.08H16a.43.43,0,0,1,.38.24l2.57,4.37H19l2.57-4.37a.43.43,0,0,1,.38-.24h3.3a.15.15,0,0,1,.15.08.26.26,0,0,1,0,.2l-4.51,7.53,4.85,8.05a.26.26,0,0,1,0,.2.15.15,0,0,1-.15.08Z"/><path class="cls-1" d="M31.76,33.73h0l-2.57,1.76q-.26.17-.26-.14V32.4a.42.42,0,0,1,.17-.33l2.71-1.95a.63.63,0,0,1,.43-.14h2.66a.21.21,0,0,1,.24.24V45.89a.21.21,0,0,1-.24.24H32a.21.21,0,0,1-.24-.24Z"/></g><polygon class="cls-1" points="60.08 10.72 80.67 46.39 39.49 46.39 60.08 10.72"/><polygon class="cls-2" points="93.05 46.39 80.67 46.39 86.86 35.67 93.05 46.39"/><polygon class="cls-3" points="53.89 0 66.27 0 60.08 10.72 53.89 0"/><polygon class="cls-4" points="107.45 0 86.86 35.67 66.27 0 107.45 0"/></g></g></g></svg>